<?xml version="1.0" encoding="utf-8"?>
<!-- Generator: Adobe Illustrator 21.0.2, SVG Export Plug-In . SVG Version: 6.00 Build 0)  -->
<svg version="1.1" id="Layer_1" xmlns="http://www.w3.org/2000/svg" xmlns:xlink="http://www.w3.org/1999/xlink" x="0px" y="0px"
     width="186px" height="113px" viewBox="0 0 186 113" style="enable-background:new 0 0 186 113;" xml:space="preserve">
<g>
	<path style="fill-rule:evenodd;clip-rule:evenodd;fill:#20A4EE;" d="M61,27h14V13H61V27z M62,14h12v12H62V14z"/>
	<polygon style="fill-rule:evenodd;clip-rule:evenodd;fill:#20A4EE;" points="64,10 64,11 77,11 77,24 78,24 78,11 78,10 	"/>
	<rect x="64" y="19" style="fill-rule:evenodd;clip-rule:evenodd;fill:#20A4EE;" width="8" height="1"/>
	<rect x="64" y="16" style="fill-rule:evenodd;clip-rule:evenodd;fill:#20A4EE;" width="8" height="1"/>
	<rect x="64" y="22" style="fill-rule:evenodd;clip-rule:evenodd;fill:#20A4EE;" width="5" height="1"/>
</g>
<g>
	<g>
		<polygon style="fill-rule:evenodd;clip-rule:evenodd;fill:#BEBEBE;" points="97,15.6 95.9,14.5 92.5,17.9 89.1,14.5 88,15.6 
			91.4,19 88,22.4 89.1,23.5 92.5,20.1 95.9,23.5 97,22.4 93.6,19 		"/>
	</g>
</g>
<g>
	<g>
		<polygon style="fill-rule:evenodd;clip-rule:evenodd;fill:#20A4EE;" points="116,17 111,17 111,12 109,12 109,17 104,17 104,19 
			109,19 109,24 111,24 111,19 116,19 		"/>
	</g>
</g>
<path style="fill-rule:evenodd;clip-rule:evenodd;fill:#777777;" d="M51,14h-2v-1v-1h-5v1v1h-3v1v1v1h1v8h1h7h1v-8h1v-1v-1v-1H51z
	 M45,13h3v1h-3V13z M50,24h-7v-7h7V24z M51,16h-9v-1h2h1h3h1h2V16z"/>
<path style="fill-rule:evenodd;clip-rule:evenodd;fill:#20A4EE;" d="M31.9,18.5l-0.7,0.7l0,0l-5.7,5.7l-0.7-0.7l5.2-5.2H10v-1h19.9
	l-5.2-5.2l0.7-0.7l5.7,5.7l0,0L31.9,18.5z"/>
<path style="fill:#BEBEBE;" d="M31.9,51.5l-5.4-5.4C25,47.3,23.2,48,21.3,48c-2.2,0-4.3-0.9-5.8-2.4C13.9,44,13,42,13,39.8
	c0-2.2,0.9-4.3,2.4-5.8c1.6-1.6,3.6-2.4,5.8-2.4c2.2,0,4.3,0.9,5.8,2.4c3,3,3.2,7.8,0.5,11.1l5.4,5.4L31.9,51.5z M21.3,33.1
	c-1.8,0-3.5,0.7-4.7,2c-1.3,1.3-2,2.9-2,4.7s0.7,3.5,2,4.7c1.3,1.3,2.9,2,4.7,2c1.8,0,3.5-0.7,4.7-2c2.6-2.6,2.6-6.8,0-9.4
	C24.7,33.8,23,33.1,21.3,33.1z"/>
<path style="fill:#BEBEBE;" d="M55.2,48.5l-3.8-3.8c-1,0.9-2.3,1.3-3.7,1.3c-1.5,0-3-0.6-4.1-1.7c-1.1-1.1-1.7-2.5-1.7-4.1
	c0-1.5,0.6-3,1.7-4.1c1.1-1.1,2.5-1.7,4.1-1.7c1.5,0,3,0.6,4.1,1.7c2.1,2.1,2.3,5.5,0.4,7.8l3.8,3.8L55.2,48.5z M47.8,35.6
	c-1.2,0-2.4,0.5-3.3,1.4c-0.9,0.9-1.4,2.1-1.4,3.3c0,1.2,0.5,2.4,1.4,3.3c0.9,0.9,2.1,1.4,3.3,1.4s2.4-0.5,3.3-1.4
	c1.8-1.8,1.8-4.8,0-6.6C50.2,36.1,49,35.6,47.8,35.6z"/>
<path style="fill:#999999;" d="M84,41.9c0-4.6-3.8-8.4-8.5-8.4c-0.3,0-0.5,0.2-0.5,0.5c0,0.3,0.2,0.5,0.5,0.5c0,0,0,0,0,0
	c4.2,0,7.5,3.3,7.5,7.4c0,2.9-1.7,5.4-4.1,6.7v-2.4c0-0.3-0.2-0.5-0.5-0.5c-0.3,0-0.5,0.2-0.5,0.5c0,0,0,0,0,0v3.4
	c0,0.3,0.2,0.5,0.5,0.5h3.4c0.3,0,0.5-0.2,0.5-0.5c0,0,0,0,0-0.1c0-0.3-0.2-0.4-0.5-0.4H80C82.4,47.6,84,44.9,84,41.9z M76,50
	c0-0.3-0.2-0.4-0.5-0.4c-4.2,0-7.5-3.3-7.5-7.4c0-2.9,1.7-5.4,4.1-6.7v2.4c0,0.3,0.2,0.5,0.5,0.5c0.3,0,0.5-0.2,0.5-0.5c0,0,0,0,0,0
	v-3.4c0-0.3-0.2-0.5-0.5-0.5h-3.4c-0.3,0-0.5,0.2-0.5,0.4c0,0.3,0.2,0.5,0.4,0.5c0,0,0,0,0.1,0H71c-2.4,1.5-4,4.1-4,7.1
	c0,4.6,3.8,8.4,8.5,8.4C75.8,50.5,76,50.3,76,50C76,50,76,50,76,50z"/>
<g>
	<path style="fill-rule:evenodd;clip-rule:evenodd;fill:#777777;" d="M104,34l-8.5,8.5L99,46l8.5-8.5L104,34z M96.9,42.5l7.1-7.1
		l2.1,2.1L99,44.6L96.9,42.5z"/>
	<polygon style="fill-rule:evenodd;clip-rule:evenodd;fill:#777777;" points="94,48 98,48 94,44 	"/>
</g>
<g>
</g>
<g>
</g>
<g>
</g>
<g>
</g>
<g>
</g>
<g>
</g>
<g>
</g>
<g>
</g>
<g>
</g>
<g>
</g>
<g>
</g>
<g>
</g>
<g>
</g>
<g>
</g>
<g>
</g>
</svg>
