<?xml version="1.0" encoding="windows-1252"?>
<!-- Generator: Adobe Illustrator 16.0.4, SVG Export Plug-In . SVG Version: 6.00 Build 0)  -->
<!DOCTYPE svg PUBLIC "-//W3C//DTD SVG 1.1//EN" "http://www.w3.org/Graphics/SVG/1.1/DTD/svg11.dtd">
<svg version="1.1" id="Layer_1" xmlns="http://www.w3.org/2000/svg" xmlns:xlink="http://www.w3.org/1999/xlink" x="0px" y="0px" width="176px" height="44px" viewBox="0 0 176 44" style="enable-background:new 0 0 176 44;" xml:space="preserve">
<symbol id="ikonka" viewBox="-82.061 -60.712 164.369 121.425">
	<g>
		<path style="fill:#FF3377;" d="M82.309-5.038c0-9.32-3.779-17.75-9.88-23.86c-6.1-6.1-14.54-9.88-23.859-9.88h-93.82    c-0.74,0-1.479,0.02-2.21,0.07c-19.3,1.14-34.6,17.15-34.6,36.73c0,19.63,15.37,35.66,34.72,36.74    c8.09,15.43,24.25,25.95,42.87,25.95c21.27,0,39.31-13.72,45.81-32.79c2.33,0.51,4.75,0.79,7.23,0.79    C67.209,28.712,82.309,13.603,82.309-5.038z"/>
		<polygon style="fill:#FF3377;" points="-19.876,-30.842 -19.876,-60.712 -49.745,-30.843   "/>
	</g>
	<path style="fill:#FF644D;" d="M82.304-5.038c0-9.32-3.77-17.75-9.88-23.86c-6.09-6.1-14.54-9.88-23.85-9.88h-68.45l61.21,66.7   c2.33,0.51,4.75,0.79,7.24,0.79C67.204,28.712,82.304,13.603,82.304-5.038z"/>
	<path style="fill:#FA3A59;" d="M41.334,27.922l-61.21-66.7v-21.93l-21.94,21.93h-3.439c-0.74,0-1.47,0.02-2.2,0.07   c-16.51,0.98-30.1,12.83-33.67,28.5v0.02L41.334,27.922z"/>
	<path style="opacity:0.1;fill:#FFFFFF;" d="M41.334,27.922l-122.46-38.13c-0.61,2.65-0.93,5.4-0.93,8.23   c0,19.63,15.37,35.66,34.72,36.74L41.334,27.922z"/>
	<path id="path4597_3_" style="fill:#FFFFFF;" d="M13.275-23.525c4.678-1.681,6.358-0.166,8.374,1.814   c2.031,1.977,4.681,4.623,5.855,6.354c0.785,1.17,1.437,2.221,0.272,4.004c-1.156,1.79-5.479,7.471-6.679,8.893   c-2.142,2.562-3.233,1.351-5.085,0.395c-1.862-0.942-5.481-3.805-7.374-3.727C6.67-5.71-2.844,5.683-3.163,6.109   c0,0-9.017,12.495-8.613,14.44c0.384,1.855,4.041,4.668,5.431,6.241c1.358,1.563,2.796,2.327,0.846,5.034   c-1.089,1.512-5.549,7.068-7.001,8.637c-1.448,1.568-2.635,1.192-3.953,0.71c-1.953-0.7-5.178-2.635-7.588-4.115   c-2.413-1.489-4.295-2.739-3.804-7.681c0.177-1.705,1.911-12.025,15.961-30.051C2.171-18.695,11.664-22.936,13.275-23.525z"/>
</symbol>
<symbol id="napis" viewBox="-128.313 -40.979 256.627 81.959">
	<g>
		<path style="fill:#323D4C;" d="M-123.165,30.206c1.813,0.294,3.554,0.441,5.221,0.441c1.715,0,3.504-0.147,5.368-0.441v-43.609    h18.312c0.147-0.834,0.245-1.63,0.294-2.39c0.048-0.761,0.073-1.483,0.073-2.169c0-0.785-0.025-1.558-0.073-2.317    c-0.049-0.761-0.147-1.557-0.294-2.39h-28.901V30.206z"/>
		<path style="fill:#323D4C;" d="M-87.859,7.409h-4.927c-0.147,0.637-0.257,1.311-0.331,2.022c-0.073,0.71-0.11,1.384-0.11,2.021    c0,1.324,0.147,2.623,0.441,3.898h15.149v-38.021c-1.765-0.294-3.482-0.441-5.148-0.441c-1.618,0-3.31,0.147-5.074,0.441V7.409z     M-89.403,21.749c-0.294,1.666-0.441,3.31-0.441,4.928c0,1.568,0.147,3.21,0.441,4.927c0.833,0.147,1.728,0.258,2.684,0.331    s1.826,0.11,2.611,0.11c0.833,0,1.74-0.037,2.721-0.11c0.98-0.073,1.887-0.184,2.721-0.331c0.147-0.834,0.245-1.654,0.294-2.464    c0.048-0.809,0.074-1.63,0.074-2.463c0-0.785-0.025-1.594-0.074-2.427c-0.049-0.835-0.147-1.668-0.294-2.501    c-0.834-0.146-1.728-0.246-2.684-0.294c-0.956-0.05-1.851-0.073-2.685-0.073c-0.785,0-1.667,0.023-2.647,0.073    C-87.664,21.503-88.57,21.603-89.403,21.749z"/>
		<path style="fill:#323D4C;" d="M-73.527,15.277c1.177,0.245,2.267,0.393,3.272,0.441c1.004,0.049,1.875,0.073,2.611,0.073    c0.98,0,1.96-0.024,2.941-0.073c0.98-0.049,1.887-0.172,2.721-0.367l8.31-28.313l8.163,28.313c0.833,0.146,1.716,0.257,2.647,0.33    c0.931,0.074,1.863,0.11,2.794,0.11c0.736,0,1.582-0.024,2.538-0.073c0.956-0.049,2.046-0.196,3.272-0.441L-48.67-22.669    c-0.932-0.147-1.912-0.245-2.941-0.294c-1.03-0.049-1.888-0.074-2.574-0.074c-0.735,0-1.569,0.025-2.5,0.074    c-0.932,0.049-1.814,0.172-2.647,0.367L-73.527,15.277z"/>
		<path style="fill:#323D4C;" d="M-23.41-6.857c0.195-2.942,1.225-5.074,3.088-6.398c1.863-1.323,4.313-1.985,7.354-1.985    c1.666,0,3.37,0.158,5.111,0.478c1.739,0.318,3.394,0.772,4.964,1.36c0.539-0.98,1.004-2.157,1.397-3.529    c0.392-1.373,0.613-2.844,0.662-4.413c-3.824-1.471-8.139-2.206-12.943-2.206c-3.53,0-6.558,0.491-9.082,1.471    c-2.525,0.98-4.584,2.341-6.177,4.082c-1.594,1.739-2.771,3.812-3.53,6.214c-0.761,2.401-1.14,5.025-1.14,7.869    c0,2.794,0.392,5.416,1.177,7.868c0.784,2.451,1.949,4.584,3.493,6.398c1.544,1.813,3.457,3.247,5.736,4.302    c2.28,1.054,4.939,1.581,7.979,1.581c2.647,0,5-0.466,7.06-1.397s3.812-2.206,5.258-3.823C-1.557,9.395-0.465,7.47,0.27,5.239    c0.735-2.231,1.103-4.621,1.103-7.17c0-0.932-0.037-1.852-0.11-2.758c-0.073-0.908-0.16-1.631-0.257-2.169H-23.41z M-8.481,0.423    C-8.58,2.775-9.229,4.675-10.43,6.122c-1.202,1.445-2.88,2.169-5.038,2.169c-2.452,0-4.314-0.687-5.589-2.059    c-1.275-1.373-2.035-3.31-2.28-5.81H-8.481z"/>
		<path style="fill:#323D4C;" d="M42.709-12.668c0.637-1.373,1.164-2.782,1.581-4.229c0.416-1.446,0.723-2.904,0.919-4.375    c-2.55-0.932-4.842-1.545-6.876-1.839c-2.035-0.294-4.229-0.441-6.582-0.441c-4.167,0-7.82,0.675-10.957,2.022    c-3.138,1.348-5.773,3.236-7.906,5.663S9.15-10.561,8.072-7.226C6.993-3.893,6.455-0.265,6.455,3.658    c0,3.922,0.563,7.562,1.691,10.921c1.127,3.357,2.758,6.263,4.89,8.715c2.133,2.45,4.755,4.362,7.869,5.735    c3.113,1.372,6.655,2.06,10.626,2.06c2.353,0,4.522-0.147,6.508-0.441c1.985-0.294,4.129-0.908,6.435-1.839    c-0.099-1.471-0.393-2.904-0.882-4.302c-0.491-1.397-1.03-2.807-1.618-4.229c-1.717,0.588-3.236,1.004-4.56,1.25    c-1.324,0.245-2.893,0.368-4.707,0.368c-4.707,0-8.322-1.533-10.847-4.597c-2.525-3.064-3.787-7.611-3.787-13.642    c0-11.963,5.074-17.943,15.223-17.943c1.813,0,3.407,0.121,4.78,0.367C39.449-13.673,40.993-13.256,42.709-12.668z"/>
		<path style="fill:#323D4C;" d="M70.199,2.335c0,1.177-0.196,2.132-0.588,2.868c-0.393,0.735-0.932,1.311-1.618,1.728    c-0.688,0.416-1.533,0.699-2.537,0.846c-1.005,0.147-2.121,0.221-3.346,0.221c-2.647,0-5.467-0.515-8.457-1.544    c-0.687,1.274-1.202,2.475-1.544,3.604c-0.344,1.127-0.515,2.475-0.515,4.044c2.157,0.735,4.313,1.274,6.471,1.618    c2.157,0.343,4.167,0.515,6.03,0.515c5.099,0,9.083-1.226,11.95-3.677c2.868-2.452,4.302-6.374,4.302-11.767v-22.062    c-1.717-0.54-3.8-1.055-6.251-1.545c-2.452-0.489-5.221-0.735-8.31-0.735c-2.5,0-4.792,0.221-6.876,0.662    c-2.084,0.441-3.874,1.177-5.368,2.206c-1.496,1.029-2.647,2.354-3.457,3.972c-0.809,1.617-1.213,3.604-1.213,5.956    c0,2.354,0.502,4.326,1.508,5.92c1.004,1.593,2.304,2.868,3.897,3.824c1.593,0.956,3.37,1.643,5.332,2.06    c1.96,0.416,3.922,0.625,5.883,0.625c1.421,0,2.99-0.073,4.707-0.221V2.335z M70.199-5.24c-0.588,0.098-1.226,0.185-1.912,0.258    c-0.687,0.073-1.299,0.11-1.838,0.11c-2.403,0-4.302-0.43-5.699-1.287c-1.397-0.858-2.096-2.243-2.096-4.155    c0-1.275,0.269-2.256,0.809-2.941c0.539-0.688,1.188-1.189,1.949-1.508c0.76-0.319,1.568-0.515,2.427-0.588    c0.857-0.073,1.605-0.11,2.243-0.11c0.735,0,1.471,0.061,2.206,0.184c0.735,0.122,1.372,0.232,1.912,0.331V-5.24z"/>
		<path style="fill:#323D4C;" d="M87.648,31.089c1.765,0.294,3.505,0.441,5.222,0.441c1.666,0,3.383-0.147,5.147-0.441V-7.52    c0-1.521,0.085-2.746,0.257-3.677c0.171-0.933,0.441-1.655,0.809-2.17s0.846-0.871,1.434-1.066    c0.588-0.196,1.324-0.294,2.206-0.294c0.392,0,0.82,0.024,1.287,0.073c0.465,0.049,0.919,0.122,1.36,0.221    c0.539-2.011,0.809-3.971,0.809-5.883c0-0.394,0-0.748,0-1.066c0-0.319-0.049-0.675-0.147-1.066    c-0.785-0.245-1.729-0.416-2.832-0.515c-1.103-0.098-2.121-0.147-3.052-0.147c-3.776,0-6.803,1.041-9.082,3.126    c-2.28,2.083-3.42,5.479-3.42,10.185V31.089z"/>
		<path style="fill:#323D4C;" d="M109.71,31.089c1.765,0.294,3.505,0.441,5.222,0.441c1.666,0,3.383-0.147,5.147-0.441V-7.52    c0-1.521,0.085-2.746,0.257-3.677c0.171-0.933,0.441-1.655,0.809-2.17s0.846-0.871,1.434-1.066    c0.588-0.196,1.324-0.294,2.206-0.294c0.392,0,0.82,0.024,1.287,0.073c0.465,0.049,0.919,0.122,1.36,0.221    c0.539-2.011,0.809-3.971,0.809-5.883c0-0.394,0-0.748,0-1.066c0-0.319-0.049-0.675-0.147-1.066    c-0.785-0.245-1.729-0.416-2.832-0.515c-1.103-0.098-2.121-0.147-3.052-0.147c-3.776,0-6.803,1.041-9.082,3.126    c-2.28,2.083-3.42,5.479-3.42,10.185V31.089z"/>
	</g>
</symbol>
<g>
	<g>
		<path style="fill:#323D4C;" d="M69.295,11.695c1.453-0.235,2.915-0.229,4.368,0c0.053,0.077,0,0.38,0,0.468    c0,1.001,0,2.003,0,3.005c0,3.164,0,6.327,0,9.49c0,0.359-0.068,5.022,0.061,5.022c2.461,0,4.923,0,7.385,0    c0.357,0,0.259,2.175,0.244,2.521c-0.023,0.564,0.182,1.301-0.472,1.301c-1.161,0-2.323,0-3.484,0c-2.649,0-5.3,0-7.949,0    c-0.304,0-0.152-0.562-0.152-0.811c0-1.019,0-2.037,0-3.057c0-3.138,0-6.275,0-9.413C69.295,17.379,69.295,14.537,69.295,11.695z"/>
		<path style="fill:#323D4C;" d="M84.287,21.097c-0.571,0-1.144,0-1.715,0c-0.774,0-0.513-2.06-0.434-2.64    c0.105-0.775,0.162-0.636,0.845-0.636c0.766,0,1.53,0,2.296,0c0.208,0,3.224-0.003,3.224,0.003c0,0.648,0,1.296,0,1.945    c0,3.062,0,6.125,0,9.187c0,1.222,0,2.442,0,3.663c0,0.267,0,0.534,0,0.801c0,0.331-2.456,0.264-2.801,0.243    c-0.449-0.026-1.415,0.166-1.415-0.415c0-0.397,0-0.795,0-1.191c0-1.454,0-2.908,0-4.361    C84.287,25.496,84.287,23.297,84.287,21.097z M83.65,15.183c-0.119-0.67-0.183-1.351-0.183-2.032c0-0.332,0.017-0.663,0.046-0.993    c0.045-0.501-0.071-1.016,0.488-1.095c1.342-0.188,2.741-0.179,4.076,0.056c0.118,0.671,0.151,1.352,0.151,2.032    c0,0.333-0.011,0.667-0.03,1c-0.029,0.499,0.087,1.012-0.474,1.085C86.412,15.409,84.959,15.415,83.65,15.183    C83.528,14.496,83.994,15.244,83.65,15.183z"/>
		<path style="fill:#323D4C;" d="M90.571,17.852c1.271-0.265,2.646-0.279,3.937-0.161c0.712,0.065,0.79,0.011,0.961,0.591    c0.378,1.29,0.757,2.58,1.135,3.87c0.719,2.449,1.438,4.898,2.156,7.346c0.67-2.325,1.341-4.649,2.011-6.975    c0.383-1.324,0.765-2.648,1.146-3.973c0.069-0.242,0.139-0.483,0.209-0.725c0.062-0.219,2.005-0.186,2.245-0.186    c0.807,0,1.604,0.054,2.396,0.212c-1.764,4.642-3.527,9.284-5.29,13.925c-0.218,0.574-0.437,1.148-0.654,1.722    c-0.13,0.343-2.934,0.144-3.308,0.124c-0.54-0.029-1.007,0.074-1.196-0.431c-0.871-2.324-1.742-4.648-2.612-6.973    C92.661,23.431,91.616,20.641,90.571,17.852z"/>
		<path style="fill:#323D4C;" d="M111.653,26.981c0.192,2.915,2.826,3.644,5.349,3.408c0.714-0.067,1.424-0.197,2.115-0.387    c0.338-0.093,0.671-0.2,0.998-0.322c0.144,0.262,0.264,0.536,0.367,0.815c0.248,0.669,0.406,1.365,0.461,2.077    c0.041,0.532-0.126,0.448-0.58,0.596c-0.414,0.135-0.834,0.248-1.259,0.342c-2.606,0.571-5.7,0.64-8.109-0.657    c-2.487-1.339-3.511-4.032-3.584-6.736c-0.076-2.796,0.831-5.768,3.231-7.411c2.215-1.515,5.455-1.721,7.806-0.396    c2.387,1.346,3.426,3.994,3.426,6.638c0,0.372,0.155,2.032-0.33,2.032c-0.465,0-0.93,0-1.395,0    C117.317,26.981,114.485,26.981,111.653,26.981z M117.81,23.979c-0.07-1.706-1.033-3.246-2.881-3.246    c-1.979,0-3.062,1.362-3.245,3.246C113.726,23.979,115.768,23.979,117.81,23.979z"/>
		<path style="fill:#323D4C;" d="M139.322,29.377c0.313,0.676,0.564,1.381,0.75,2.103c0.092,0.357,0.168,0.719,0.228,1.083    c0.089,0.543-0.17,0.45-0.631,0.6c-1.352,0.438-2.731,0.646-4.149,0.692c-2.744,0.089-5.492-0.468-7.625-2.298    c-4.191-3.597-4.562-10.908-1.896-15.491c1.347-2.316,3.6-3.936,6.222-4.488c1.384-0.291,2.818-0.296,4.223-0.175    c0.641,0.056,1.278,0.145,1.902,0.303c0.339,0.086,0.674,0.188,1.004,0.303c0.687,0.238,0.742,0.254,0.613,0.984    c-0.128,0.725-0.396,1.414-0.662,2.097c-0.181,0.464-0.087,0.76-0.629,0.586c-0.316-0.102-0.637-0.196-0.96-0.276    c-1.29-0.318-2.722-0.401-4.027-0.13c-2.304,0.478-3.731,2.296-4.235,4.515c-0.612,2.689-0.561,6.502,1.48,8.631    C133.039,30.613,136.703,30.276,139.322,29.377C139.585,29.943,138.614,29.62,139.322,29.377z"/>
		<path style="fill:#323D4C;" d="M151.066,23.189c0-3.199-4.476-2.44-6.456-1.819c-0.535,0.167-0.466-0.033-0.674-0.495    c-0.128-0.283-0.241-0.572-0.331-0.87c-0.163-0.537-0.488-1.584,0.121-1.778c1.448-0.461,2.969-0.726,4.489-0.765    c2.294-0.06,4.963,0.511,6.205,2.651c0.787,1.355,0.831,2.921,0.831,4.443c0,2.703,0,5.405,0,8.107    c0,0.58-1.038,0.558-1.505,0.667c-1.487,0.348-2.973,0.535-4.501,0.535c-2.574,0-5.753-0.562-6.693-3.35    c-0.704-2.086-0.182-4.484,1.673-5.77c1.969-1.364,4.548-1.39,6.841-1.193C151.066,23.44,151.096,23.298,151.066,23.189z     M151.066,26.313c-1.381-0.228-3.779-0.445-4.546,1.073c-0.321,0.637-0.34,1.652,0.117,2.233c0.649,0.826,1.754,0.909,2.73,0.909    c0.266,0,1.698-0.026,1.698-0.317c0-0.41,0-0.82,0-1.229C151.066,28.093,151.066,27.203,151.066,26.313z"/>
		<path style="fill:#323D4C;" d="M158.643,11.331c1.418-0.237,2.858-0.237,4.276,0c0.059,0.085,0,0.422,0,0.52    c0,1.086,0,2.172,0,3.259c0,3.117,0,6.234,0,9.351c0,0.879,0,1.758,0,2.637c0,0.559,0.004,1.122,0.106,1.673    c0.255,1.395,1.397,1.591,2.649,1.388c0.462-0.074,0.362,0.253,0.44,0.653c0.066,0.343,0.115,0.69,0.143,1.039    c0.04,0.499,0.089,1.067-0.033,1.561c-1.215,0.378-2.742,0.392-3.977,0.108c-2.473-0.567-3.53-2.598-3.601-4.988    C158.479,22.808,158.643,17.058,158.643,11.331z"/>
		<path style="fill:#323D4C;" d="M168.123,11.331c1.418-0.237,2.858-0.237,4.276,0c0.059,0.085,0,0.422,0,0.52    c0,1.086,0,2.172,0,3.259c0,3.117,0,6.234,0,9.351c0,0.879,0,1.758,0,2.637c0,0.559,0.004,1.122,0.106,1.673    c0.255,1.395,1.397,1.591,2.649,1.388c0.462-0.074,0.362,0.253,0.44,0.653c0.066,0.343,0.115,0.69,0.143,1.039    c0.04,0.499,0.089,1.067-0.033,1.561c-1.215,0.378-2.742,0.392-3.977,0.108c-2.473-0.567-3.53-2.598-3.601-4.988    C167.959,22.808,168.123,17.058,168.123,11.331z"/>
	</g>
	<g>
		<path style="fill:#FF3377;" d="M58.864,23.798c0,3.325-1.349,6.333-3.524,8.513c-2.177,2.177-5.188,3.525-8.514,3.525H13.352    c-0.265,0-0.528-0.008-0.789-0.025C5.677,35.404,0.218,29.691,0.218,22.706c0-7.004,5.484-12.724,12.388-13.109    c2.887-5.505,8.652-9.259,15.296-9.259c7.589,0,14.026,4.895,16.345,11.699c0.832-0.182,1.695-0.282,2.58-0.282    C53.477,11.755,58.864,17.146,58.864,23.798z"/>
		<polygon style="fill:#FF3377;" points="22.405,33.005 22.405,43.662 11.748,33.005   "/>
	</g>
	<path style="fill:#FF644D;" d="M58.862,23.798c0,3.325-1.345,6.333-3.524,8.513c-2.173,2.177-5.188,3.525-8.51,3.525H22.405   l21.84-23.799c0.831-0.182,1.694-0.282,2.583-0.282C53.476,11.755,58.862,17.146,58.862,23.798z"/>
	<path style="fill:#FA3A59;" d="M44.245,12.037l-21.84,23.799v7.824l-7.828-7.824H13.35c-0.265,0-0.524-0.008-0.785-0.025   c-5.891-0.35-10.739-4.577-12.014-10.169v-0.007L44.245,12.037z"/>
	<path style="opacity:0.1;fill:#FFFFFF;" d="M44.245,12.037L0.551,25.642c-0.218-0.945-0.331-1.926-0.331-2.936   c0-7.004,5.483-12.724,12.388-13.109L44.245,12.037z"/>
	<path id="path4597_2_" style="fill:#FFFFFF;" d="M34.233,30.394c1.669,0.6,2.269,0.06,2.987-0.647   c0.725-0.705,1.67-1.649,2.09-2.267c0.279-0.418,0.513-0.793,0.097-1.429c-0.412-0.639-1.955-2.666-2.383-3.173   c-0.765-0.914-1.153-0.481-1.814-0.141c-0.664,0.336-1.956,1.357-2.631,1.329c-0.702-0.029-4.097-4.094-4.211-4.246   c0,0-3.217-4.458-3.073-5.152c0.137-0.662,1.442-1.666,1.938-2.227c0.484-0.558,0.997-0.83,0.302-1.796   c-0.389-0.54-1.98-2.522-2.498-3.082c-0.517-0.56-0.94-0.426-1.411-0.253c-0.696,0.25-1.848,0.94-2.707,1.468   c-0.861,0.531-1.532,0.978-1.357,2.741c0.063,0.608,0.682,4.291,5.695,10.722C30.271,28.67,33.658,30.184,34.233,30.394z"/>
</g>
<g>
</g>
<g>
</g>
<g>
</g>
<g>
</g>
<g>
</g>
<g>
</g>
<g>
</g>
<g>
</g>
<g>
</g>
<g>
</g>
<g>
</g>
<g>
</g>
<g>
</g>
<g>
</g>
<g>
</g>
<g>
</g>
<g>
</g>
<g>
</g>
<g>
</g>
<g>
</g>
<g>
</g>
<g>
</g>
</svg>